<svg  viewBox="0 0 25 25" fill="none" xmlns="http://www.w3.org/2000/svg">
<g clip-path="url(#clip0_21_816)">
<path d="M4.56485 0C2.03612 0 0 2.03612 0 4.56485V20.4352C0 22.9639 2.03612 25 4.56485 25H13.1664V15.2266H10.5821V11.7078H13.1664V8.70158C13.1664 6.3397 14.6934 4.1711 18.211 4.1711C19.6352 4.1711 20.6883 4.30783 20.6883 4.30783L20.6055 7.59378C20.6055 7.59378 19.5314 7.58363 18.3594 7.58363C17.0909 7.58363 16.8875 8.16807 16.8875 9.13832V11.7079H20.7063L20.5399 15.2266H16.8875V25.0001H20.4352C22.9639 25.0001 25 22.9639 25 20.4352V4.56488C25 2.03615 22.9639 2.5e-05 20.4352 2.5e-05H4.56483L4.56485 0Z" fill="black"/>
</g>
<defs>
<clipPath id="clip0_21_816">
<rect width="25" height="25" fill="white"/>
</clipPath>
</defs>
</svg>
