<svg viewBox="0 0 25 25" fill="none" xmlns="http://www.w3.org/2000/svg">
<g clip-path="url(#clip0_21_814)">
<path d="M16.3375 0H8.6625C1.65833 0 0 1.65833 0 8.6625V16.3375C0 23.3417 1.65833 25 8.6625 25H16.3375C23.3417 25 25 23.3417 25 16.3375V8.6625C25 1.65833 23.324 0 16.3375 0ZM20.1833 17.8365H18.3667C17.6792 17.8365 17.4667 17.2896 16.2312 16.0375C15.1552 14.9958 14.6792 14.8552 14.4146 14.8552C14.0437 14.8552 13.9375 14.9615 13.9375 15.4729V17.1135C13.9375 17.5552 13.7969 17.8198 12.6323 17.8198C10.7094 17.8198 8.57396 16.6552 7.075 14.4844C4.81667 11.3094 4.19792 8.92708 4.19792 8.43333C4.19792 8.16875 4.30417 7.92187 4.81563 7.92187H6.63229C7.09062 7.92187 7.26771 8.13333 7.44479 8.62708C8.34375 11.2208 9.84375 13.4969 10.4615 13.4969C10.6906 13.4969 10.7969 13.3906 10.7969 12.8094V10.126C10.726 8.89062 10.0729 8.78542 10.0729 8.34479C10.0729 8.13229 10.25 7.92083 10.5312 7.92083H13.3896C13.7781 7.92083 13.9187 8.13229 13.9187 8.59062V12.2083C13.9187 12.5958 14.0958 12.7375 14.201 12.7375C14.4302 12.7375 14.625 12.5958 15.0479 12.1729C16.3542 10.7083 17.2885 8.45 17.2885 8.45C17.4125 8.18542 17.624 7.93854 18.0833 7.93854H19.9C20.4469 7.93854 20.5708 8.21979 20.4469 8.60833C20.2177 9.66771 17.9948 12.8073 17.9948 12.8073C17.801 13.125 17.7302 13.2656 17.9948 13.6198C18.1885 13.8844 18.824 14.4312 19.2479 14.925C20.024 15.8073 20.6229 16.5479 20.7823 17.0604C20.9594 17.5708 20.6937 17.8354 20.1823 17.8354L20.1833 17.8365Z" fill="black"/>
</g>
<defs>
<clipPath id="clip0_21_814">
<rect width="25" height="25" fill="white"/>
</clipPath>
</defs>
</svg>
