<svg viewBox="0 0 20 24" fill="none" xmlns="http://www.w3.org/2000/svg">
<path d="M16.7145 17.6528H15.4271L15.4331 16.8994C15.4331 16.5645 15.7059 16.2906 16.0395 16.2906H16.1216C16.4557 16.2906 16.7293 16.5645 16.7293 16.8994L16.7145 17.6528ZM11.8862 16.0382C11.5597 16.0382 11.2926 16.2593 11.2926 16.5301V20.1945C11.2926 20.4648 11.5597 20.6854 11.8862 20.6854C12.2141 20.6854 12.4815 20.4648 12.4815 20.1945V16.5301C12.4815 16.2591 12.2141 16.0382 11.8862 16.0382ZM19.7271 13.9884V20.9596C19.7271 22.6317 18.288 24 16.5295 24H3.37954C1.62019 24 0.181641 22.6317 0.181641 20.9596V13.9884C0.181641 12.3163 1.62019 10.9477 3.37954 10.9477H16.5295C18.288 10.9477 19.7271 12.3163 19.7271 13.9884ZM4.25674 21.7165L4.2557 14.3732L5.88579 14.3737V13.2856L1.54044 13.2791V14.3487L2.8969 14.3527V21.7165H4.25674ZM9.1431 15.467H7.78404V19.3883C7.78404 19.9556 7.81818 20.2392 7.78196 20.3392C7.67146 20.6434 7.17475 20.9661 6.98111 20.3721C6.94828 20.2681 6.97721 19.9542 6.97668 19.4153L6.97121 15.467H5.61971L5.62388 19.3531C5.62492 19.9487 5.61059 20.3931 5.62857 20.595C5.66167 20.9514 5.64994 21.3672 5.97804 21.6043C6.58942 22.0484 7.76137 21.5381 8.05455 20.9036L8.05195 21.7133L9.14336 21.7146V15.467H9.1431ZM13.4908 19.9574L13.4879 16.6937C13.4869 15.4499 12.5636 14.7049 11.31 15.7112L11.3155 13.2848L9.95776 13.2869L9.95124 21.6621L11.0674 21.6456L11.1691 21.124C12.5961 22.4431 13.4929 21.5395 13.4908 19.9574ZM17.7441 19.5248L16.7249 19.5304C16.7244 19.5711 16.7231 19.6181 16.7226 19.6693V20.2423C16.7226 20.5488 16.4711 20.7986 16.1657 20.7986H15.966C15.6601 20.7986 15.4089 20.5488 15.4089 20.2423V20.1788V19.5485V18.7351H17.7423V17.8501C17.7423 17.2032 17.7259 16.5566 17.6727 16.1869C17.506 15.0171 15.8766 14.8315 15.0536 15.4302C14.7951 15.6172 14.5978 15.8675 14.4832 16.2039C14.3672 16.5404 14.3099 17 14.3099 17.5838V19.5296C14.3101 22.7646 18.2093 22.3074 17.7441 19.5248ZM12.5169 8.95991C12.587 9.13167 12.6959 9.27086 12.8437 9.37592C12.9896 9.47939 13.1765 9.53139 13.3998 9.53139C13.5958 9.53139 13.7694 9.47808 13.9205 9.36804C14.0712 9.25852 14.1981 9.0949 14.3015 8.87666L14.276 9.414H15.7909V2.92161H14.5984V7.97454C14.5984 8.2482 14.3748 8.47222 14.1014 8.47222C13.8296 8.47222 13.6052 8.2482 13.6052 7.97454V2.92161H12.3605V7.30064C12.3605 7.85846 12.3704 8.23034 12.3869 8.41891C12.4043 8.60616 12.4468 8.78579 12.5169 8.95991ZM7.92607 5.29313C7.92607 4.66992 7.97767 4.18327 8.08009 3.8324C8.18329 3.48284 8.36858 3.20183 8.63701 2.98989C8.90465 2.7769 9.24735 2.67028 9.66405 2.67028C10.0146 2.67028 10.3148 2.73961 10.5658 2.87539C10.8178 3.01196 11.0119 3.18923 11.1469 3.408C11.2842 3.62755 11.3775 3.85315 11.4273 4.084C11.4781 4.318 11.5032 4.67097 11.5032 5.14711V6.78905C11.5032 7.39125 11.4792 7.8343 11.4328 8.11557C11.3867 8.39763 11.2876 8.65921 11.1344 8.9045C10.983 9.14717 10.7878 9.32864 10.5512 9.44446C10.3119 9.56133 10.0383 9.61858 9.72921 9.61858C9.3839 9.61858 9.09307 9.57052 8.85331 9.4702C8.61277 9.3704 8.42696 9.21991 8.29457 9.02006C8.16088 8.81993 8.0668 8.57622 8.00999 8.29206C7.95292 8.00816 7.92581 7.58113 7.92581 7.01202V5.29313H7.92607ZM9.11261 7.87212C9.11261 8.23979 9.38416 8.53998 9.71487 8.53998C10.0458 8.53998 10.3161 8.23979 10.3161 7.87212V4.41596C10.3161 4.0488 10.0458 3.74862 9.71487 3.74862C9.38416 3.74862 9.11261 4.0488 9.11261 4.41596V7.87212ZM4.91998 9.61727H6.34914L6.35071 4.63787L8.03944 0.372299H6.47632L5.57853 3.54062L4.66797 0.363632H3.12102L4.91764 4.64024L4.91998 9.61727Z" fill="black"/>
</svg>
